<!-- assets/img/tamara-logo.svg -->
<svg xmlns="http://www.w3.org/2000/svg" viewBox="0 0 640 640" role="img" aria-label="TAMARA - Warehouse Logo">
  <defs>
    <linearGradient id="tamaraGrad" x1="0%" y1="0%" x2="100%" y2="100%">
      <stop offset="0%"  stop-color="#2E6FDB"/>
      <stop offset="100%" stop-color="#3F9A4D"/>
    </linearGradient>
  </defs>

  <!-- Badge kotak membulat -->
  <rect x="0" y="0" width="640" height="640" rx="120" fill="url(#tamaraGrad)"/>

  <!-- Ikon gudang: diperkecil & center (atur scale untuk besar-kecil) -->
  <g transform="translate(320 320) scale(0.76) translate(-320 -320)">
    <path fill="#FFFFFF" d="M32 206.1L32 544C32 561.7 46.3 576 64 576C81.7 576 96 561.7 96 544L96 304C96 286.3 110.3 272 128 272L512 272C529.7 272 544 286.3 544 304L544 544C544 561.7 558.3 576 576 576C593.7 576 608 561.7 608 544L608 206.1C608 178.6 590.4 154.1 564.2 145.4L335.2 69.1C325.3 65.8 314.7 65.8 304.8 69.1L75.8 145.4C49.6 154.1 32 178.6 32 206.1zM496 320L144 320L144 384L496 384L496 320zM144 480L496 480L496 416L144 416L144 480zM496 512L144 512L144 576L496 576L496 512z"/>
  </g>
</svg>
